<svg version="1.2" xmlns="http://www.w3.org/2000/svg" viewBox="0 0 599 537" width="599" height="537">
	<title>4154982-ai</title>
	<defs>
		<linearGradient id="g1" x1="90.8" y1="120.7" x2="485.2" y2="120.7" gradientUnits="userSpaceOnUse">
			<stop offset="0" stop-color="#34c3dc"/>
			<stop offset="1" stop-color="#1c98d4"/>
		</linearGradient>
		<clipPath clipPathUnits="userSpaceOnUse" id="cp1">
			<path d="m485.15 262.25c0 43.49-35.25 78.75-78.74 78.75h-63.9c-50.48 0-107.34-33.79-42.34-98.78h-0.01q0.23-0.21 0.46-0.42l12.42 16.03 26.98 39.7c0.43 0.64 1.33 0.72 1.87 0.18l4.38-4.36c0.91-0.91 1.26-2.26 0.94-3.64 0 0-15.41-56.83-21.97-72.4 19.21-20.43 35.55-45.13 32.22-48.46-3.16-3.16-28.27 12.87-48.81 32.1-16.21-6.56-71.85-21.65-71.85-21.65-1.38-0.32-2.74 0.03-3.65 0.94l-4.36 4.37c-0.54 0.54-0.45 1.44 0.18 1.87l39.7 26.98 15.64 12.12q0 0.01 0 0.01c-4.47 4.75-8.84 9.53-13.04 14.21-93.17 91.97-177.11 92.26-180.33 26.07q-0.09-1.8-0.09-3.62c0-43.49 35.25-78.74 78.74-78.74 7.19 0 14.14 0.98 20.75 2.78 17.4-36.44 54.58-61.62 97.66-61.62 43.08 0 80.26 25.18 97.66 61.62 6.61-1.8 13.56-2.78 20.75-2.78 43.49 0 78.74 35.25 78.74 78.74z"/>
		</clipPath>
	</defs>
	<style>
		.s0 { fill: url(#g1) } 
		.s1 { mix-blend-mode: multiply;fill: #00d6ee } 
	</style>
	<g id="OBJECTS">
		<path id="&lt;Path&gt;" class="s0" d="m485.2 262.3c0 43.4-35.3 78.7-78.8 78.7h-63.9c-50.5 0-107.3-33.8-42.3-98.8q0.2-0.2 0.4-0.4l12.4 16 27 39.7c0.5 0.7 1.4 0.8 1.9 0.2l4.4-4.3c0.9-1 1.2-2.3 0.9-3.7 0 0-15.4-56.8-22-72.4 19.2-20.4 35.6-45.1 32.3-48.4-3.2-3.2-28.3 12.8-48.9 32-16.2-6.5-71.8-21.6-71.8-21.6-1.4-0.3-2.7 0-3.6 0.9l-4.4 4.4c-0.5 0.6-0.5 1.5 0.2 1.9l39.7 27 15.6 12.1q0 0 0 0c-4.5 4.7-8.8 9.5-13 14.2-93.2 92-177.1 92.3-180.4 26.1q-0.1-1.8-0.1-3.6c0-43.5 35.3-78.8 78.8-78.8 7.2 0 14.1 1 20.7 2.8 17.4-36.5 54.6-61.6 97.7-61.6 43.1 0 80.3 25.1 97.7 61.6 6.6-1.8 13.5-2.8 20.7-2.8 43.5 0 78.8 35.3 78.8 78.8z"/>
		<g id="&lt;Clip Group&gt;" clip-path="url(#cp1)">
			<path id="&lt;Path&gt;" class="s1" d="m468.2 315.9c0 57.2-46.3 103.5-103.5 103.5-57.2 0-103.6-46.3-103.6-103.5 0-57.2 46.4-103.6 103.6-103.6 57.2 0 103.5 46.4 103.5 103.6z"/>
			<path id="&lt;Path&gt;" class="s1" d="m269.7 303.8c0 52.9-42.9 95.8-95.8 95.8-52.9 0-95.9-42.9-95.9-95.8 0-53 43-95.9 95.9-95.9 52.9 0 95.8 42.9 95.8 95.9z"/>
		</g>
	</g>
</svg>